<svg width="24" height="20" viewBox="0 0 24 20" fill="none" xmlns="http://www.w3.org/2000/svg">
<path fill-rule="evenodd" clip-rule="evenodd" d="M5 2C4.73478 2 4.48043 2.10536 4.29289 2.29289C4.10536 2.48043 4 2.73478 4 3V5C4 5.55228 3.55228 6 3 6C2.44772 6 2 5.55228 2 5V3C2 2.20435 2.31607 1.44129 2.87868 0.87868C3.44129 0.31607 4.20435 0 5 0H19C19.7957 0 20.5587 0.31607 21.1213 0.87868C21.6839 1.44129 22 2.20435 22 3V5C22 5.55228 21.5523 6 21 6C20.4477 6 20 5.55228 20 5V3C20 2.73478 19.8946 2.48043 19.7071 2.29289C19.5196 2.10536 19.2652 2 19 2H5Z" fill="#06259F"/>
<path fill-rule="evenodd" clip-rule="evenodd" d="M12 0C12.5523 0 13 0.447715 13 1V12C13 12.5523 12.5523 13 12 13C11.4477 13 11 12.5523 11 12V1C11 0.447715 11.4477 0 12 0Z" fill="#06259F"/>
<path fill-rule="evenodd" clip-rule="evenodd" d="M3 16C3.55228 16 4 16.4477 4 17V19C4 19.5523 3.55228 20 3 20C2.44772 20 2 19.5523 2 19V17C2 16.4477 2.44772 16 3 16Z" fill="#06259F"/>
<path fill-rule="evenodd" clip-rule="evenodd" d="M21 16C21.5523 16 22 16.4477 22 17V19C22 19.5523 21.5523 20 21 20C20.4477 20 20 19.5523 20 19V17C20 16.4477 20.4477 16 21 16Z" fill="#06259F"/>
<path fill-rule="evenodd" clip-rule="evenodd" d="M0.87868 7.87868C1.44129 7.31607 2.20435 7 3 7C3.79565 7 4.55871 7.31607 5.12132 7.87868C5.68393 8.44129 6 9.20435 6 10V11H18V10C18 9.20435 18.3161 8.44129 18.8787 7.87868C19.4413 7.31607 20.2043 7 21 7C21.7957 7 22.5587 7.31607 23.1213 7.87868C23.6839 8.44129 24 9.20435 24 10V15C24 16.6569 22.6569 18 21 18H3C1.34315 18 0 16.6569 0 15V10C0 9.20435 0.316071 8.44129 0.87868 7.87868ZM3 9C2.73478 9 2.48043 9.10536 2.29289 9.29289C2.10536 9.48043 2 9.73478 2 10V15C2 15.5523 2.44772 16 3 16H21C21.5523 16 22 15.5523 22 15V10C22 9.73478 21.8946 9.48043 21.7071 9.29289C21.5196 9.10536 21.2652 9 21 9C20.7348 9 20.4804 9.10536 20.2929 9.29289C20.1054 9.48043 20 9.73478 20 10V12C20 12.5523 19.5523 13 19 13H5C4.44772 13 4 12.5523 4 12V10C4 9.73478 3.89464 9.48043 3.70711 9.29289C3.51957 9.10536 3.26522 9 3 9Z" fill="#06259F"/>
</svg>
