<svg width="24" height="22" viewBox="0 0 24 22" fill="none" xmlns="http://www.w3.org/2000/svg">
<path fill-rule="evenodd" clip-rule="evenodd" d="M3.14251 0.485504C3.32324 0.184299 3.64874 0 4.00001 0H20C20.3513 0 20.6768 0.184299 20.8575 0.485504L23.8575 5.4855C23.9504 5.64027 23.9996 5.81728 24 5.99776C24.002 6.89751 23.7 7.77156 23.143 8.47815C22.5859 9.18474 21.8065 9.68243 20.9312 9.8905C20.0558 10.0986 19.1358 10.0048 18.3204 9.62444C17.9589 9.45582 17.6274 9.23527 17.3352 8.97188C17.1583 9.13199 16.9667 9.27651 16.7622 9.4033C16.1328 9.79351 15.407 10.0003 14.6665 10.0003C13.926 10.0003 13.2002 9.79351 12.5708 9.4033C12.3672 9.27704 12.1763 9.1332 12 8.9739C11.8237 9.1332 11.6328 9.27704 11.4292 9.4033C10.7998 9.79351 10.074 10.0003 9.33351 10.0003C8.593 10.0003 7.8672 9.79351 7.23785 9.4033C7.03335 9.27651 6.84167 9.13199 6.66478 8.97189C6.37259 9.23527 6.04107 9.45582 5.67961 9.62444C4.86421 10.0048 3.94422 10.0986 3.06885 9.8905C2.19349 9.68243 1.41408 9.18474 0.857037 8.47815C0.299997 7.77156 -0.00200533 6.89751 1.00217e-05 5.99776C0.00041432 5.81728 0.0496566 5.64027 0.142515 5.4855L3.14251 0.485504ZM4.5662 2L2.01513 6.25178C2.05967 6.61108 2.20157 6.95316 2.42766 7.23995C2.70562 7.59254 3.09454 7.84088 3.53135 7.94471C3.96816 8.04853 4.42723 8.00175 4.83412 7.81195C5.241 7.62214 5.57183 7.30045 5.77295 6.89904C5.94279 6.56007 6.28972 6.3463 6.66885 6.347C7.04799 6.3477 7.39412 6.56275 7.56271 6.90234C7.72639 7.23206 7.97888 7.50953 8.29174 7.7035C8.6046 7.89748 8.96539 8.00025 9.33351 8.00025C9.70162 8.00025 10.0624 7.89748 10.3753 7.7035C10.6881 7.50953 10.9406 7.23206 11.1043 6.90234C11.2732 6.56215 11.6202 6.347 12 6.347C12.3798 6.347 12.7268 6.56215 12.8957 6.90234C13.0594 7.23206 13.3119 7.50953 13.6247 7.7035C13.9376 7.89748 14.2984 8.00025 14.6665 8.00025C15.0346 8.00025 15.3954 7.89748 15.7083 7.7035C16.0211 7.50953 16.2736 7.23206 16.4373 6.90234C16.6059 6.56275 16.952 6.3477 17.3312 6.347C17.7103 6.3463 18.0572 6.56007 18.2271 6.89904C18.4282 7.30045 18.759 7.62214 19.1659 7.81195C19.5728 8.00175 20.0319 8.04853 20.4687 7.94471C20.9055 7.84088 21.2944 7.59254 21.5724 7.23995C21.7984 6.95316 21.9403 6.61108 21.9849 6.25178L19.4338 2H4.5662ZM4 11C4.55228 11 5 11.4477 5 12V19C5 19.5523 5.44772 20 6 20H9V17C9 15.3431 10.3431 14 12 14C13.6569 14 15 15.3431 15 17V20H18C18.5523 20 19 19.5523 19 19V12C19 11.4477 19.4477 11 20 11C20.5523 11 21 11.4477 21 12V19C21 20.6569 19.6569 22 18 22H14H10H6C4.34315 22 3 20.6569 3 19V12C3 11.4477 3.44772 11 4 11ZM11 20H13V17C13 16.4477 12.5523 16 12 16C11.4477 16 11 16.4477 11 17V20Z" fill="#06259F"/>
</svg>
