<svg width="24" height="23" viewBox="0 0 24 23" fill="none" xmlns="http://www.w3.org/2000/svg">
<path fill-rule="evenodd" clip-rule="evenodd" d="M12.4138 0.0896335C12.1509 -0.0298778 11.8491 -0.0298778 11.5862 0.0896335L0.586198 5.08963C0.0834161 5.31817 -0.138903 5.91102 0.0896341 6.4138C0.318171 6.91658 0.911022 7.1389 1.4138 6.91037L12 2.09846L22.5862 6.91037C23.089 7.1389 23.6818 6.91658 23.9104 6.4138C24.1389 5.91102 23.9166 5.31817 23.4138 5.08963L12.4138 0.0896335ZM6.7 7C6.69134 7 6.68268 7.00011 6.67402 7.00034C6.25552 7.01122 5.85149 7.15574 5.52103 7.41276C5.19874 7.66343 4.96294 8.00828 4.84614 8.39898L3.12808 13.4577L1.60798 14.9778C1.4134 15.1588 1.2587 15.3786 1.15392 15.6231C1.04724 15.872 0.994798 16.1407 1 16.4114V20V22C1 22.5523 1.44772 23 2 23H6C6.55229 23 7 22.5523 7 22V21H17V22C17 22.5523 17.4477 23 18 23H22C22.5523 23 23 22.5523 23 22V20V16.4114C23.0052 16.1408 22.9528 15.872 22.8461 15.6231C22.7413 15.3786 22.5866 15.1588 22.392 14.9778L20.8719 13.4577L19.1539 8.39895C19.0371 8.00826 18.8012 7.66342 18.479 7.41276C18.1485 7.15574 17.7445 7.01122 17.326 7.00034C17.3173 7.00011 17.3087 7 17.3 7H6.7ZM3.00711 16.4071L4.41421 15H19.5858L20.9929 16.4071L21 16.4141V19H18H6H3V16.4141L3.00711 16.4071ZM17.2531 9.02158L18.6043 13H5.39572L6.74688 9.02158L6.75394 9H17.2461L17.2531 9.02158ZM6 18C6.55229 18 7 17.5523 7 17C7 16.4477 6.55229 16 6 16C5.44772 16 5 16.4477 5 17C5 17.5523 5.44772 18 6 18ZM18 18C18.5523 18 19 17.5523 19 17C19 16.4477 18.5523 16 18 16C17.4477 16 17 16.4477 17 17C17 17.5523 17.4477 18 18 18Z" fill="#06259F"/>
</svg>
