<svg width="40" height="40" viewBox="0 0 40 40" fill="none" xmlns="http://www.w3.org/2000/svg">
<path fill-rule="evenodd" clip-rule="evenodd" d="M8.51443 33.368H28.1716C29.9389 33.368 31.3716 31.9353 31.3716 30.168V10.5108L25.6573 4.79651L9.45169 21.0021C8.85158 21.6022 8.51443 22.4162 8.51443 23.2648V33.368Z" fill="#0C31C6"/>
<path d="M24.5258 3.66528L8.32033 19.8708C7.42015 20.7709 6.91444 21.9918 6.91444 23.2649V33.368H5.99999C4.23268 33.368 2.79999 31.9353 2.79999 30.168V12.2235C2.79999 11.1535 3.33471 10.1544 4.22495 9.56091L17.7601 0.537494C19.0293 -0.308634 20.7192 -0.141295 21.7978 0.937311L24.5258 3.66528Z" fill="#EBAA1D"/>
<path d="M8.51443 34.9681V35.8826C8.51443 37.6499 9.94712 39.0826 11.7144 39.0826H33.8859C35.6532 39.0826 37.0859 37.6499 37.0859 35.8826V17.5509C37.0859 16.7023 36.7487 15.8883 36.1486 15.2882L32.9716 12.1112V30.1681C32.9716 32.819 30.8226 34.9681 28.1716 34.9681H8.51443Z" fill="#1DEBA1"/>
<path d="M31.3716 30.1683C31.3716 30.1683 31.3716 30.1684 31.3716 30.1683Z" fill="#1DEBA1"/>
</svg>
