<svg width="24" height="22" viewBox="0 0 24 22" fill="none" xmlns="http://www.w3.org/2000/svg">
<path fill-rule="evenodd" clip-rule="evenodd" d="M0 3C0 1.34315 1.34315 0 3 0H21C22.6569 0 24 1.34315 24 3V4C24 5.65685 22.6569 7 21 7H3C1.34314 7 0 5.65685 0 4V3ZM3 2C2.44772 2 2 2.44772 2 3V4C2 4.55229 2.44772 5 3 5H21C21.5523 5 22 4.55228 22 4V3C22 2.44771 21.5523 2 21 2H3ZM3 9C3.55228 9 4 9.44771 4 10V19C4 19.5523 4.44772 20 5 20H19C19.5523 20 20 19.5523 20 19V10C20 9.44771 20.4477 9 21 9C21.5523 9 22 9.44771 22 10V19C22 20.6569 20.6569 22 19 22H5C3.34315 22 2 20.6569 2 19V10C2 9.44771 2.44772 9 3 9ZM10 9C8.89543 9 8 9.89543 8 11V13C8 14.1046 8.89543 15 10 15H14C15.1046 15 16 14.1046 16 13V11C16 9.89543 15.1046 9 14 9H10ZM10 11H14V13H10V11Z" fill="#06259F"/>
</svg>
